<svg xmlns="http://www.w3.org/2000/svg" width="1200" height="630" viewBox="0 0 1200 630" role="img" aria-label="Abstract geometric blog cover">
  <g fill="none"><line x1="895.9" y1="0.8" x2="1207.7" y2="0.8" transform="rotate(67.5 895.9 0.8)" stroke="#dd66ae" stroke-width="14" stroke-linecap="round" opacity="0.57"/>
  <line x1="662.6" y1="412.9" x2="802.6" y2="412.9" transform="rotate(22.5 662.6 412.9)" stroke="#ae2679" stroke-width="12" stroke-linecap="round" opacity="0.38"/>
  <line x1="877.8" y1="616.8" x2="1030.0" y2="616.8" transform="rotate(22.5 877.8 616.8)" stroke="#215b9a" stroke-width="16" stroke-linecap="round" opacity="0.41"/>
  <line x1="937.5" y1="602.7" x2="1244.4" y2="602.7" transform="rotate(22.5 937.5 602.7)" stroke="#215b9a" stroke-width="10" stroke-linecap="round" opacity="0.34"/>
  <line x1="436.0" y1="676.9" x2="552.6" y2="676.9" transform="rotate(67.5 436.0 676.9)" stroke="#ae2679" stroke-width="14" stroke-linecap="round" opacity="0.52"/>
  <line x1="326.7" y1="-70.5" x2="504.6" y2="-70.5" transform="rotate(157.5 326.7 -70.5)" stroke="#6bb8db" stroke-width="14" stroke-linecap="round" opacity="0.59"/></g>
  <g transform="translate(190.8 200.5) rotate(77.6) scale(2.74) translate(-50 -50)"><path
    d="M 50 50 C 63 38.8, 63 21.3, 50 15 C 37 21.3, 37 38.8, 50 50 C 66.86 53.18, 80.54 42.27, 77.36 28.18 C 64.33 21.94, 50.65 32.85, 50 50 C 58.03 65.17, 75.09 69.06, 84.12 57.79 C 80.87 43.71, 63.81 39.82, 50 50 C 43.15 65.73, 50.74 81.5, 65.19 81.53 C 74.17 70.22, 66.57 54.45, 50 50 C 33.43 54.45, 25.83 70.22, 34.81 81.53 C 49.26 81.5, 56.85 65.73, 50 50 C 36.19 39.82, 19.13 43.71, 15.88 57.79 C 24.91 69.06, 41.97 65.17, 50 50 C 49.35 32.85, 35.67 21.94, 22.64 28.18 C 19.46 42.27, 33.14 53.18, 50 50"
    fill="none"
    stroke="#6bb8db"
    stroke-width="2"
    stroke-linecap="round"
    stroke-linejoin="round"
  /></g>
</svg>